<svg height="512" viewBox="0 0 60 60" width="512" xmlns="http://www.w3.org/2000/svg"><g id="Page-1" fill="none" fill-rule="evenodd"><g id="023---Ripped" fill-rule="nonzero" transform="translate(-1)"><path id="Shape" d="m59.44 46.55c-.1487337.8568103-.8298735 1.5218284-1.69 1.65l-4.16.59c-.8782937.1287856-1.7354649-.3406177-2.1-1.15-1.4714797-3.234943-2.7503785-6.5540693-3.83-9.94-.3631236 2.0800012-.5371674 4.1886097-.52 6.3 0 5.75.23 5.97.91 13.91.0251902.2787-.0675493.5552044-.2556929.7623523-.1881435.207148-.4544759.3259854-.7343071.3276477h-32.12c-.2798312-.0016623-.5461636-.1204997-.7343071-.3276477-.1881436-.2071479-.2808831-.4836523-.2556929-.7623523.68-7.94.91-8.16.91-13.91.0171674-2.1113903-.1568764-4.2199988-.52-6.3-1.0796215 3.3859307-2.3585203 6.705057-3.83 9.94-.3645351.8093823-1.22170633 1.2787856-2.1 1.15l-4.16-.59c-.86012652-.1281716-1.54126629-.7931897-1.69-1.65-1.27714469-6.5975777-.47345229-13.4289631 2.3-19.55l-1-4c-1-4 0-13 10-16 7.08-2.12 9.65-4.25 10.54-5.31.5006178-.45343351 1.1546338-.70002972 1.83-.69h9.54c.6753662-.01002972 1.3293822.23656649 1.83.69.89 1.06 3.46 3.19 10.54 5.31 10 3 11 12 10 16l-1 4c2.7734523 6.1210369 3.5771447 12.9524223 2.3 19.55z" fill="#ffe0b2"/><path id="Shape" d="m57.14 27 1-4c1-4 0-13-10-16-7.08-2.12-9.65-4.25-10.54-5.31-.5006178-.45343351-1.1546338-.70002972-1.83-.69l-3-.00029437c.6753662-.00973535 1.3293822.23686086 1.83.69029437.89 1.06 3.46 3.19 10.54 5.31 10 3 11 12 10 16l-1 4c2.7734523 6.1210369 3.5771447 12.9524223 2.3 19.55-.1487337.8568103-.8298735 1.5218284-1.69 1.65l-2.431.345c.3839775.2224947.8318313.3088237 1.271.245l4.16-.59c.8601265-.1281716 1.5412663-.7931897 1.69-1.65 1.2771447-6.5975777.4734523-13.4289631-2.3-19.55z" fill="#dfc49c"/><path id="Shape" d="m46.708 43.449c-.2306256-.5945304-.851029-.9414507-1.4783043-.8266457-.6272754.1148051-1.0845905.6589714-1.0896957 1.2966457v.081c0 5.75.23 5.97.91 13.91.0251902.2787-.0675493.5552044-.2556929.7623523-.1881435.207148-.4544759.3259854-.7343071.3276477h3c.2788813-.0017791.54435-.1199369.7323273-.3259525.1879774-.2060156.2813838-.4811704.2576727-.7590475-.658-7.685-.894-8.156-.909-13.383-.1486667-.3646667-.293-.7256667-.433-1.083z" fill="#dfc49c"/><path id="Shape" d="m45.14 14s5 5 4 14c-.55 4.91-1.09 7.44-1.48 9.7" fill="#ffe0b2"/><path id="Shape" d="m16.86 14s-5 5-4 14c.55 4.91 1.09 7.44 1.48 9.7" fill="#ffe0b2"/><g fill="#000"><path id="Shape" d="m1.577 46.732c.22727922 1.2791206 1.24762782 2.2692575 2.533 2.458l4.154.589c1.31731836.2006223 2.6068026-.5015802 3.153-1.717.929-2 1.744-4.034 2.409-5.827.023.543.034 1.125.034 1.765.033277 2.9186674-.1143392 5.8365923-.442 8.737-.123 1.294-.276 2.9-.464 5.088-.0466213.5603123.1429821 1.1146212.523 1.529.3766035.409426.9067145.643501 1.463.646h32.12c.5597577-.0017711 1.0931559-.2380403 1.4705987-.651403.3774429-.4133626.5643831-.9659837.5154013-1.523597-.188-2.191-.341-3.8-.464-5.09-.3276651-2.899738-.4752815-5.8169978-.442-8.735 0-.64.012-1.221.034-1.764.665 1.79 1.478 3.821 2.407 5.819.4765655 1.0686649 1.5368894 1.7572683 2.707 1.758.1479442-.0001191.2956783-.011149.442-.033l4.158-.59c1.2867364-.1874903 2.3084418-1.1785647 2.535-2.459 1.2852825-6.6875016.5101025-13.6076304-2.223-19.845l.91-3.643c1.259-5.034-.529-14.155-10.683-17.2-7.073-2.118-9.392-4.2-10.063-5-.6907284-.68006178-1.6247578-1.05561794-2.594-1.043h-9.54c-.9702464-.01227138-1.9049326.36484477-2.595 1.047-.669.8-2.988 2.877-10.062 5-10.154 3.041-11.941 12.162-10.683 17.196l.91 3.643c-2.73336821 6.2376511-3.50855386 13.1581794-2.223 19.846zm4.168-19.266c.11423633-.2179169.14482447-.4700912.086-.709l-1-4c-.725-2.9-.568-11.834 9.316-14.8 7.318-2.191 10.045-4.465 11.018-5.623.311348-.21994369.6838107-.33675359 1.065-.334h9.54c.3806991-.00256857.752691.11385371 1.064.333.975 1.16 3.7 3.434 11.019 5.625 9.884 2.965 10.041 11.9 9.317 14.8l-1 4c-.0598878.2387403-.0296234.4911813.085.709 2.6484472 5.9268935 3.4162764 12.5232445 2.2 18.9-.0715169.4339859-.4126804.7735383-.847.843l-4.166.591c-.4404192.0648873-.8696173-.1736927-1.047-.582-1.4206635-3.1225069-2.6587488-6.3249005-3.708-9.591.063-.362.128-.726.2-1.114.357-1.966.8-4.413 1.247-8.4 1.041-9.369-4.069-14.6-4.287-14.817-.3923789-.3789722-1.0160848-.3735524-1.4018186.0121814s-.3911536 1.0094397-.0121814 1.4018186c.046.047 4.65 4.758 3.713 13.182-.439 3.922-.876 6.332-1.227 8.269-.086.478-.168.93-.246 1.38-.3722289 2.132166-.5506239 4.2936581-.533 6.458-.0337551 2.9814247.1165306 5.9620908.45 8.925.124 1.29.277 2.888.47 5.075h-32.113c.186-2.182.339-3.779.463-5.069.3341358-2.9648631.4844232-5.9475666.45-8.931.0181899-2.1683837-.1605439-4.3339407-.534-6.47-.076-.44-.158-.889-.244-1.364-.351-1.938-.788-4.35-1.228-8.276-.929-8.362 3.654-13.123 3.715-13.185.3784551-.3929089.3721707-1.0166378-.0141242-1.4018415-.3862949-.3852036-1.0100391-.3897235-1.4018758-.0101585-.218.218-5.328 5.448-4.286 14.818.447 4 .891 6.444 1.247 8.411.07.388.135.749.2 1.107-1.050874 3.2688729-2.2899433 6.4742258-3.711 9.6-.18081835.4060289-.61050656.6413343-1.05.575l-4.162-.59c-.43353449-.0695399-.77391865-.4087156-.845-.842-1.21687451-6.3786186-.44940625-12.976961 2.199-18.906z"/><path id="Shape" d="m20 26h2c.5522847 0 1-.4477153 1-1s-.4477153-1-1-1h-2c-.5522847 0-1 .4477153-1 1s.4477153 1 1 1z"/><path id="Shape" d="m42 24h-2c-.5522847 0-1 .4477153-1 1s.4477153 1 1 1h2c.5522847 0 1-.4477153 1-1s-.4477153-1-1-1z"/><path id="Shape" d="m25.641 40c-1.1216467.0283694-2.1747312-.5382958-2.769-1.49-.1750601-.3115356-.5030246-.5060129-.8603525-.5101742-.3573278-.0041613-.6897323.1826257-.872.49-.1822676.3073744-.1867077.6886386-.0116475 1.0001742.9422479 1.5886508 2.6663181 2.5475287 4.513 2.51h1.289c1.0985408.0007936 2.1705955-.3372354 3.07-.968v2.35c-.1358582 1.5650358-1.5031493 2.7310189-3.07 2.618h-1.289c-1.1216467.0283694-2.1747312-.5382958-2.769-1.49-.1750601-.3115356-.5030246-.5060129-.8603525-.5101742-.3573278-.0041613-.6897323.1826257-.872.49-.1822676.3073744-.1867077.6886386-.0116475 1.0001742.9422479 1.5886508 2.6663181 2.5475287 4.513 2.51h1.289c1.0985408.0007936 2.1705955-.3372354 3.07-.968v2.35c-.1358582 1.5650358-1.5031493 2.7310189-3.07 2.618h-1.289c-1.1216467.0283694-2.1747312-.5382958-2.769-1.49-.1750601-.3115356-.5030246-.5060129-.8603525-.5101742-.3573278-.0041613-.6897323.1826257-.872.49-.1822676.3073744-.1867077.6886386-.0116475 1.0001742.9422479 1.5886508 2.6663181 2.5475287 4.513 2.51h1.289c1.572191.0146433 3.0672674-.6799978 4.07-1.891 1.0027326 1.2110022 2.497809 1.9056433 4.07 1.891h1.289c1.8466819.0375287 3.5707521-.9213492 4.513-2.51.2706195-.4815923.0995923-1.0913805-.382-1.362s-1.0913805-.0995923-1.362.382c-.5942688.9517042-1.6473533 1.5183694-2.769 1.49h-1.289c-1.5668507.1130189-2.9341418-1.0529642-3.07-2.618v-2.35c.8994045.6307646 1.9714592.9687936 3.07.968h1.289c1.8466819.0375287 3.5707521-.9213492 4.513-2.51.2706195-.4815923.0995923-1.0913805-.382-1.362s-1.0913805-.0995923-1.362.382c-.5942688.9517042-1.6473533 1.5183694-2.769 1.49h-1.289c-1.5668507.1130189-2.9341418-1.0529642-3.07-2.618v-2.35c.8994045.6307646 1.9714592.9687936 3.07.968h1.289c1.8466819.0375287 3.5707521-.9213492 4.513-2.51.2706195-.4815923.0995923-1.0913805-.382-1.362s-1.0913805-.0995923-1.362.382c-.5942688.9517042-1.6473533 1.5183694-2.769 1.49h-1.289c-1.5668507.1130189-2.9341418-1.0529642-3.07-2.618v-3.382c0-.5522847-.4477153-1-1-1s-1 .4477153-1 1v3.382c-.1358582 1.5650358-1.5031493 2.7310189-3.07 2.618z"/><path id="Shape" d="m23.1 11.992c1.2662685-.0000434 2.496921-.4191685 3.5-1.192.2858125-.2143594.4355548-.5649147.3928203-.91961525-.0427344-.35470054-.2714531-.65965883-.6-.80000001-.3285469-.14034119-.7070078-.09474411-.9928203.11961526-1.4341942 1.0301249-3.3658058 1.0301249-4.8 0-.4418278-.33137083-1.0686291-.24182778-1.4.20000002-.3313708.44182779-.2418278 1.06862908.2 1.39999998 1.0817589.7676692 2.3735568 1.1838376 3.7 1.192z"/><path id="Shape" d="m38.9 11.992c1.3264432-.0081624 2.6182411-.4243308 3.7-1.192.4418278-.3313708.5313708-.9581722.2-1.4s-.9581722-.53137085-1.4-.2c-1.4358675 1.0249136-3.3641325 1.0249136-4.8 0-.4418278-.33137085-1.0686292-.2418278-1.4.2s-.2418278 1.0686292.2 1.4c1.0028625.7732349 2.2336567 1.1924083 3.5 1.192z"/><path id="Shape" d="m22 32.012c-2.0830833-.0609585-4.0781398-.8536703-5.635-2.239-.4269161-.3507008-.4887008-.9810839-.138-1.408s.9810839-.4887008 1.408-.138c2.9 2.38 5.834 2.381 8.729 0 .4269161-.3507008 1.0572992-.2889161 1.408.138s.2889161 1.0572992-.138 1.408c-1.5564168 1.3854074-3.5511932 2.1781487-5.634 2.239z"/><path id="Shape" d="m40 32.012c-2.0830833-.0609585-4.0781398-.8536703-5.635-2.239-.4269161-.3507008-.4887008-.9810839-.138-1.408s.9810839-.4887008 1.408-.138c2.9 2.38 5.834 2.381 8.729 0 .4269161-.3507008 1.0572992-.2889161 1.408.138s.2889161 1.0572992-.138 1.408c-1.5564168 1.3854074-3.5511932 2.1781487-5.634 2.239z"/></g></g></g></svg>